<svg xmlns="http://www.w3.org/2000/svg" xmlns:xlink="http://www.w3.org/1999/xlink" width="1024" height="400">\n<path  d="M 0 0
L 1024 0
L 1024 400
L 0 400
L 0 0" style="stroke-width:0;stroke:rgba(255,255,255,1.0);fill:rgba(255,255,255,1.0)"/><path  d="M 38 11
L 965 11
L 965 351
L 38 351
L 38 11" style="stroke-width:0;stroke:rgba(255,255,255,1.0);fill:rgba(255,255,255,1.0)"/><path  d="M 38 351
L 965 351" style="stroke-width:2;stroke:rgba(85,85,85,1.0);fill:none"/><path  d="M 38 351
L 38 356" style="stroke-width:2;stroke:rgba(85,85,85,1.0);fill:none"/><text x="5" y="373" style="stroke-width:0;stroke:none;fill:rgba(51,51,51,1.0);font-size:12.8px;font-family:'Roboto Medium',sans-serif">2016-05-19</text><path  d="M 154 351
L 154 356" style="stroke-width:2;stroke:rgba(85,85,85,1.0);fill:none"/><text x="121" y="373" style="stroke-width:0;stroke:none;fill:rgba(51,51,51,1.0);font-size:12.8px;font-family:'Roboto Medium',sans-serif">2017-03-28</text><path  d="M 270 351
L 270 356" style="stroke-width:2;stroke:rgba(85,85,85,1.0);fill:none"/><text x="237" y="373" style="stroke-width:0;stroke:none;fill:rgba(51,51,51,1.0);font-size:12.8px;font-family:'Roboto Medium',sans-serif">2018-02-04</text><path  d="M 386 351
L 386 356" style="stroke-width:2;stroke:rgba(85,85,85,1.0);fill:none"/><text x="353" y="373" style="stroke-width:0;stroke:none;fill:rgba(51,51,51,1.0);font-size:12.8px;font-family:'Roboto Medium',sans-serif">2018-12-14</text><path  d="M 502 351
L 502 356" style="stroke-width:2;stroke:rgba(85,85,85,1.0);fill:none"/><text x="469" y="373" style="stroke-width:0;stroke:none;fill:rgba(51,51,51,1.0);font-size:12.8px;font-family:'Roboto Medium',sans-serif">2019-10-23</text><path  d="M 618 351
L 618 356" style="stroke-width:2;stroke:rgba(85,85,85,1.0);fill:none"/><text x="585" y="373" style="stroke-width:0;stroke:none;fill:rgba(51,51,51,1.0);font-size:12.8px;font-family:'Roboto Medium',sans-serif">2020-08-31</text><path  d="M 734 351
L 734 356" style="stroke-width:2;stroke:rgba(85,85,85,1.0);fill:none"/><text x="701" y="373" style="stroke-width:0;stroke:none;fill:rgba(51,51,51,1.0);font-size:12.8px;font-family:'Roboto Medium',sans-serif">2021-07-10</text><path  d="M 850 351
L 850 356" style="stroke-width:2;stroke:rgba(85,85,85,1.0);fill:none"/><text x="817" y="373" style="stroke-width:0;stroke:none;fill:rgba(51,51,51,1.0);font-size:12.8px;font-family:'Roboto Medium',sans-serif">2022-05-19</text><path  d="M 965 351
L 965 356" style="stroke-width:2;stroke:rgba(85,85,85,1.0);fill:none"/><text x="932" y="373" style="stroke-width:0;stroke:none;fill:rgba(51,51,51,1.0);font-size:12.8px;font-family:'Roboto Medium',sans-serif">2023-03-28</text><text x="487" y="395" style="stroke-width:0;stroke:none;fill:rgba(51,51,51,1.0);font-size:12.8px;font-family:'Roboto Medium',sans-serif">Time</text><path  d="M 967 351
L 967 11" style="stroke-width:2;stroke:rgba(85,85,85,1.0);fill:none"/><path  d="M 967 351
L 972 351" style="stroke-width:2;stroke:rgba(85,85,85,1.0);fill:none"/><text x="977" y="357" style="stroke-width:0;stroke:none;fill:rgba(51,51,51,1.0);font-size:12.8px;font-family:'Roboto Medium',sans-serif">0</text><path  d="M 967 308
L 972 308" style="stroke-width:2;stroke:rgba(85,85,85,1.0);fill:none"/><text x="977" y="314" style="stroke-width:0;stroke:none;fill:rgba(51,51,51,1.0);font-size:12.8px;font-family:'Roboto Medium',sans-serif">79</text><path  d="M 967 265
L 972 265" style="stroke-width:2;stroke:rgba(85,85,85,1.0);fill:none"/><text x="977" y="271" style="stroke-width:0;stroke:none;fill:rgba(51,51,51,1.0);font-size:12.8px;font-family:'Roboto Medium',sans-serif">158</text><path  d="M 967 223
L 972 223" style="stroke-width:2;stroke:rgba(85,85,85,1.0);fill:none"/><text x="977" y="229" style="stroke-width:0;stroke:none;fill:rgba(51,51,51,1.0);font-size:12.8px;font-family:'Roboto Medium',sans-serif">237</text><path  d="M 967 181
L 972 181" style="stroke-width:2;stroke:rgba(85,85,85,1.0);fill:none"/><text x="977" y="187" style="stroke-width:0;stroke:none;fill:rgba(51,51,51,1.0);font-size:12.8px;font-family:'Roboto Medium',sans-serif">315</text><path  d="M 967 138
L 972 138" style="stroke-width:2;stroke:rgba(85,85,85,1.0);fill:none"/><text x="977" y="144" style="stroke-width:0;stroke:none;fill:rgba(51,51,51,1.0);font-size:12.8px;font-family:'Roboto Medium',sans-serif">394</text><path  d="M 967 95
L 972 95" style="stroke-width:2;stroke:rgba(85,85,85,1.0);fill:none"/><text x="977" y="101" style="stroke-width:0;stroke:none;fill:rgba(51,51,51,1.0);font-size:12.8px;font-family:'Roboto Medium',sans-serif">473</text><path  d="M 967 53
L 972 53" style="stroke-width:2;stroke:rgba(85,85,85,1.0);fill:none"/><text x="977" y="59" style="stroke-width:0;stroke:none;fill:rgba(51,51,51,1.0);font-size:12.8px;font-family:'Roboto Medium',sans-serif">552</text><path  d="M 967 11
L 972 11" style="stroke-width:2;stroke:rgba(85,85,85,1.0);fill:none"/><text x="977" y="17" style="stroke-width:0;stroke:none;fill:rgba(51,51,51,1.0);font-size:12.8px;font-family:'Roboto Medium',sans-serif">630</text><text x="1009" y="150" style="stroke-width:0;stroke:none;fill:rgba(51,51,51,1.0);font-size:12.8px;font-family:'Roboto Medium',sans-serif" transform="rotate(90.00,1009,150)">Stargazers</text><path  d="M 38 351
L 40 350
L 56 349
L 61 349
L 80 348
L 85 348
L 85 347
L 87 347
L 92 346
L 96 346
L 97 345
L 102 345
L 102 344
L 106 343
L 110 343
L 110 342
L 115 342
L 120 341
L 126 341
L 126 340
L 127 340
L 128 339
L 131 339
L 132 338
L 137 338
L 141 337
L 145 336
L 150 336
L 156 335
L 159 335
L 159 334
L 162 334
L 162 333
L 165 333
L 165 332
L 168 332
L 175 331
L 186 331
L 187 330
L 188 329
L 188 329
L 189 328
L 192 328
L 194 327
L 197 327
L 201 326
L 205 326
L 206 325
L 216 325
L 217 324
L 227 324
L 229 323
L 238 322
L 242 322
L 242 321
L 243 321
L 243 320
L 243 320
L 244 319
L 248 319
L 249 318
L 251 318
L 254 317
L 255 317
L 264 316
L 267 315
L 274 315
L 278 314
L 278 314
L 280 313
L 281 313
L 282 312
L 285 312
L 289 311
L 289 311
L 292 310
L 292 309
L 293 309
L 294 308
L 294 308
L 294 307
L 295 307
L 301 306
L 302 306
L 303 305
L 303 305
L 304 304
L 306 304
L 308 303
L 308 302
L 311 302
L 313 301
L 313 301
L 314 300
L 315 300
L 326 299
L 332 299
L 334 298
L 336 298
L 336 297
L 337 297
L 344 296
L 356 295
L 357 295
L 362 294
L 362 294
L 363 293
L 364 293
L 366 292
L 368 292
L 368 291
L 369 291
L 371 290
L 372 290
L 372 289
L 373 288
L 374 288
L 375 287
L 377 287
L 379 286
L 380 286
L 381 285
L 382 285
L 384 284
L 390 284
L 396 283
L 398 283
L 398 282
L 400 281
L 401 281
L 405 280
L 406 280
L 407 279
L 407 279
L 408 278
L 410 278
L 412 277
L 412 277
L 414 276
L 416 275
L 416 275
L 417 274
L 417 274
L 418 273
L 419 273
L 420 272
L 424 272
L 424 271
L 424 271
L 427 270
L 427 270
L 432 269
L 434 268
L 435 268
L 437 267
L 437 267
L 444 266
L 445 266
L 445 265
L 456 265
L 460 264
L 460 264
L 464 263
L 464 263
L 466 262
L 470 261
L 470 261
L 471 260
L 474 260
L 474 259
L 474 259
L 474 258
L 476 258
L 476 257
L 478 257
L 481 256
L 482 256
L 484 255
L 489 254
L 496 254
L 501 253
L 508 253
L 509 252
L 510 252
L 511 251
L 512 251
L 514 250
L 515 250
L 517 249
L 518 249
L 521 248
L 522 247
L 525 247
L 526 246
L 527 246
L 528 245
L 529 245
L 531 244
L 531 244
L 533 243
L 535 243
L 541 242
L 547 241
L 547 241
L 549 240
L 550 240
L 550 239
L 551 239
L 551 238
L 552 238
L 552 237
L 552 237
L 554 236
L 557 236
L 557 235
L 558 234
L 559 234
L 561 233
L 561 233
L 563 232
L 564 232
L 565 231
L 565 231
L 566 230
L 568 230
L 569 229
L 570 229
L 571 228
L 571 227
L 572 227
L 572 226
L 573 226
L 574 225
L 575 225
L 577 224
L 577 224
L 579 223
L 580 223
L 581 222
L 582 222
L 585 221
L 588 220
L 588 220
L 592 219
L 592 219
L 596 218
L 596 218
L 598 217
L 598 217
L 599 216
L 599 216
L 599 215
L 602 215
L 603 214
L 603 213
L 605 213
L 606 212
L 608 212
L 608 211
L 610 211
L 612 210
L 613 210
L 613 209
L 613 209
L 614 208
L 614 207
L 617 207
L 620 206
L 621 206
L 622 205
L 622 205
L 622 204
L 623 204
L 623 203
L 623 203
L 624 202
L 626 202
L 626 201
L 626 200
L 627 200
L 630 199
L 630 199
L 631 198
L 631 198
L 633 197
L 634 197
L 634 196
L 636 196
L 636 195
L 646 195
L 653 194
L 653 193
L 655 193
L 656 192
L 657 192
L 658 191
L 658 191
L 658 190
L 660 190
L 660 189
L 661 189
L 661 188
L 661 188
L 662 187
L 663 186
L 663 186
L 664 185
L 666 185
L 667 184
L 668 184
L 670 183
L 676 183
L 676 182
L 677 182
L 678 181
L 679 181
L 679 180
L 679 179
L 680 179
L 683 178
L 686 178
L 686 177
L 687 177
L 687 176
L 687 176
L 687 175
L 689 175
L 689 174
L 690 173
L 690 173
L 690 172
L 690 172
L 693 171
L 693 171
L 694 170
L 695 170
L 695 169
L 697 169
L 698 168
L 699 168
L 699 167
L 700 166
L 701 166
L 701 165
L 701 165
L 702 164
L 704 164
L 704 163
L 704 163
L 705 162
L 705 162
L 706 161
L 706 161
L 706 160
L 706 159
L 707 159
L 707 158
L 707 158
L 707 157
L 708 157
L 709 156
L 710 156
L 710 155
L 711 155
L 711 154
L 714 154
L 715 153
L 715 152
L 715 152
L 715 151
L 717 151
L 717 150
L 718 150
L 719 149
L 723 149
L 725 148
L 725 148
L 728 147
L 729 147
L 729 146
L 731 145
L 733 145
L 733 144
L 734 144
L 734 143
L 735 143
L 736 142
L 737 142
L 738 141
L 740 141
L 740 140
L 740 139
L 740 139
L 740 138
L 745 138
L 746 137
L 748 137
L 750 136
L 751 136
L 752 135
L 754 135
L 754 134
L 756 134
L 757 133
L 758 132
L 758 132
L 759 131
L 763 131
L 763 130
L 763 130
L 764 129
L 765 129
L 767 128
L 767 128
L 768 127
L 770 127
L 770 126
L 771 125
L 773 125
L 773 124
L 775 124
L 780 123
L 781 123
L 781 122
L 782 122
L 782 121
L 783 121
L 783 120
L 784 120
L 784 119
L 786 118
L 790 118
L 790 117
L 791 117
L 792 116
L 792 116
L 793 115
L 795 115
L 795 114
L 795 114
L 796 113
L 796 113
L 797 112
L 797 111
L 798 111
L 798 110
L 800 110
L 800 109
L 801 109
L 801 108
L 802 108
L 802 107
L 803 107
L 804 106
L 804 105
L 804 105
L 805 104
L 806 104
L 809 103
L 809 103
L 810 102
L 811 102
L 812 101
L 813 101
L 813 100
L 813 100
L 813 99
L 813 98
L 814 98
L 815 97
L 816 97
L 816 96
L 817 96
L 819 95
L 820 95
L 821 94
L 822 94
L 823 93
L 823 93
L 823 92
L 824 91
L 825 91
L 825 90
L 825 90
L 826 89
L 826 89
L 830 88
L 832 88
L 832 87
L 832 87
L 833 86
L 834 86
L 835 85
L 835 84
L 836 84
L 836 83
L 837 83
L 837 82
L 839 82
L 839 81
L 839 81
L 839 80
L 840 80
L 840 79
L 841 79
L 842 78
L 842 77
L 843 77
L 844 76
L 844 76
L 845 75
L 852 75
L 852 74
L 853 74
L 855 73
L 856 73
L 857 72
L 858 71
L 859 71
L 860 70
L 863 70
L 868 69
L 869 69
L 870 68
L 871 68
L 872 67
L 873 67
L 873 66
L 875 66
L 875 65
L 876 64
L 878 64
L 878 63
L 880 63
L 881 62
L 882 62
L 883 61
L 883 61
L 883 60
L 886 60
L 886 59
L 887 59
L 887 58
L 889 57
L 890 57
L 892 56
L 892 56
L 893 55
L 895 55
L 896 54
L 897 54
L 898 53
L 898 53
L 899 52
L 907 52
L 908 51
L 911 50
L 913 50
L 913 49
L 913 49
L 914 48
L 914 48
L 915 47
L 915 47
L 918 46
L 918 46
L 919 45
L 921 45
L 922 44
L 923 43
L 923 43
L 923 42
L 924 42
L 924 41
L 924 41
L 925 40
L 928 40
L 928 39
L 929 39
L 929 38
L 933 37
L 934 37
L 937 36
L 937 36
L 937 35
L 937 35
L 937 34
L 938 34
L 940 33
L 942 33
L 942 32
L 943 32
L 943 31
L 944 30
L 944 30
L 945 29
L 945 29
L 946 28
L 947 28
L 948 27
L 948 27
L 948 26
L 949 26
L 950 25
L 950 25
L 951 24
L 952 23
L 952 23
L 953 22
L 953 22
L 953 21
L 956 21
L 956 20
L 957 20
L 959 19
L 959 19
L 962 18
L 962 18
L 964 17
L 964 16
L 965 16
L 965 15" style="stroke-width:2;stroke:rgba(129,199,239,1.0);fill:none"/></svg>