<?xml version="1.0" encoding="UTF-8" standalone="no"?>
<!-- Created with Inkscape (http://www.inkscape.org/) -->

<svg
   version="1.1"
   id="svg824"
   xml:space="preserve"
   width="793.70135"
   height="1122.52"
   viewBox="0 0 793.70135 1122.52"
   xmlns="http://www.w3.org/2000/svg"
   xmlns:svg="http://www.w3.org/2000/svg"><defs
     id="defs828" /><g
     id="g830"
     transform="matrix(1.3333333,0,0,-1.3333333,0,1122.52)"><g
       id="g966"
       transform="translate(118.821,420.401)"><path
         d="M 0,0 H 298.106"
         style="fill:none;stroke:#000000;stroke-width:0.873;stroke-linecap:butt;stroke-linejoin:miter;stroke-miterlimit:10;stroke-dasharray:none;stroke-opacity:1"
         id="path968" /></g><text
       transform="matrix(1,0,0,-1,221.282,406.743)"
       style="font-variant:normal;font-weight:normal;font-size:10.9091px;font-family:'Fira Sans';-inkscape-font-specification:FiraSans-Regular;writing-mode:lr-tb;fill:#000000;fill-opacity:1;fill-rule:nonzero;stroke:none"
       id="text972"><tspan
         x="0 5.0945497 8.8690987 14.803649 20.738199 27.130932 33.065483 38.16003 44.989128 50.923679 57.360046 63.03278 127.51647 133.95284 139.83284 145.15648 151.03648"
         y="0"
         id="tspan970">steepestedgedevex</tspan></text><g
       id="g974"
       transform="translate(207.5,400.215)"><path
         d="M 0,0 H 96.532"
         style="fill:none;stroke:#000000;stroke-width:0.327;stroke-linecap:butt;stroke-linejoin:miter;stroke-miterlimit:10;stroke-dasharray:none;stroke-opacity:1"
         id="path976" /></g><g
       id="g978"
       transform="translate(314.941,400.215)"><path
         d="M 0,0 H 96.532"
         style="fill:none;stroke:#000000;stroke-width:0.327;stroke-linecap:butt;stroke-linejoin:miter;stroke-miterlimit:10;stroke-dasharray:none;stroke-opacity:1"
         id="path980" /></g><text
       transform="matrix(1,0,0,-1,215.064,386.83)"
       style="font-variant:normal;font-weight:normal;font-size:10.9091px;font-family:'Fira Sans';-inkscape-font-specification:FiraSans-Regular;writing-mode:lr-tb;fill:#000000;fill-opacity:1;fill-rule:nonzero;stroke:none"
       id="text984"><tspan
         x="0 3.9381852 6.9490967 16.221832 41.149124 44.160038 47.934586 53.869137 57.82914 63.709145 67.647331 70.658241 77.029152 83.345528 107.44373 111.38191 114.39282 123.66556 148.59285 151.60376 155.37831 161.31287 165.27286 171.15286 175.09105 178.10196 184.47289 190.78925"
         y="0"
         id="tspan982">timeiterationstimeiterations</tspan></text><g
       id="g986"
       transform="translate(118.821,380.193)"><path
         d="M 0,0 H 298.106"
         style="fill:none;stroke:#000000;stroke-width:0.545;stroke-linecap:butt;stroke-linejoin:miter;stroke-miterlimit:10;stroke-dasharray:none;stroke-opacity:1"
         id="path988" /></g><text
       transform="matrix(1,0,0,-1,124.798,366.699)"
       style="font-variant:normal;font-weight:normal;font-size:10.9091px;font-family:'Fira Sans';-inkscape-font-specification:FiraSans-Regular;writing-mode:lr-tb;fill:#000000;fill-opacity:1;fill-rule:nonzero;stroke:none"
       id="text992"><tspan
         x="0 6.3163691 15.578195 21.970928 28.341843 34.614574 40.930943 50.258224 56.770958 59.781868 66.174599"
         y="0"
         id="tspan990">noboundfips</tspan></text><text
       transform="matrix(1,0,0,-1,218.081,366.699)"
       style="font-variant:normal;font-weight:normal;font-size:10.9091px;font-family:'Fira Code';-inkscape-font-specification:FiraMono-Regular;writing-mode:lr-tb;fill:#000000;fill-opacity:1;fill-rule:nonzero;stroke:none"
       id="text996"><tspan
         x="0 6.5454602 13.09092 48.687313 55.232773 61.778233 68.323692 107.44373 113.98919 120.53465 127.08011 151.95285 158.49831 166.85469 173.40015 179.9456"
         y="0"
         id="tspan994">0.861681.3712841</tspan></text><text
       transform="matrix(1,0,0,-1,124.798,353.15)"
       style="font-variant:normal;font-weight:normal;font-size:10.9091px;font-family:'Fira Sans';-inkscape-font-specification:FiraSans-Regular;writing-mode:lr-tb;fill:#000000;fill-opacity:1;fill-rule:nonzero;stroke:none"
       id="text1000"><tspan
         x="0 3.15273 9.5236444 15.840014 24.403656 29.498207 33.272755 39.207306 48.490948 52.669136 58.941868 62.094597"
         y="0"
         id="tspan998">longsteprule</tspan></text><text
       transform="matrix(1,0,0,-1,218.081,353.15)"
       style="font-variant:normal;font-weight:normal;font-size:10.9091px;font-family:'Fira Code';-inkscape-font-specification:FiraMono-Regular;writing-mode:lr-tb;fill:#000000;fill-opacity:1;fill-rule:nonzero;stroke:none"
       id="text1004"><tspan
         x="0 6.5454602 13.09092 19.636379 55.232773 61.778233 68.323692 107.44373 113.98919 120.53465 127.08011 166.85469 173.40015 179.9456"
         y="0"
         id="tspan1002">0.082830.13432</tspan></text><g
       id="g1006"
       transform="translate(118.821,346.349)"><path
         d="M 0,0 H 298.106"
         style="fill:none;stroke:#000000;stroke-width:0.873;stroke-linecap:butt;stroke-linejoin:miter;stroke-miterlimit:10;stroke-dasharray:none;stroke-opacity:1"
         id="path1008" /></g></g></svg>
